PathFileType	4	(X/Y/Z)
DataRate	CameraRate	NumFrames	NumMarkers	Units	OrigDataRate	OrigDataStartFrame	OrigNumFrames
120	120	4	142	mm	120	1	473	
Frame#	Time	 STRN			 T1			 T8			 T10			 T12			 C7			 CLAV			 LANK			 RANK			 LANI			 RANI			 LASI			 RASI			 LPSI			 RPSI			 LSHO			 RSHO			 LTOE			 RTOE			 RHEE			 LHEE			 LKNE			 RKNE			 LKNI			 RKNI			 RIWR			 LIWR			 RELB			 LELB			 RELBIN			 LELBIN			 LOWR			 ROWR			 RCLAV			 LCLAV			 RFHD			 LBHD			 LFHD			 RBHD			 LMT1			 LMT5			 RMT1			 RMT5			 Tracking_L5			 Tracking_L4			 Tracking_L3			 Tracking_L2			 Tracking_L1			 Tracking_T11			 Tracking_T9			 Tracking_T7			 Tracking_T6			 Tracking_T5			 Tracking_T4			 Tracking_T3			 Tracking_T2			 rthumb			 rindex			 rmiddle			 rring			 rpinky			 lthumb			 lindex			 lmiddle			 lring			 lpinky			 ROOT			 Spine1			 Spine2			 Spine3			 LHIPJ			 RHIPJ			 LKJC			 RKJC			 LAJC			 RAJC			 LFOOT			 RFOOT			 NECK			 LCOL			 RCOL			 HEAD			 LSHOULDER			 RSHOULDER			 LELC			 RELC			 LWRIST			 RWRIST			 left_index1			 left_index2			 left_index3			 left_middle1			 left_middle2			 left_middle3			 left_pinky1			 left_pinky2			 left_pinky3			 left_ring1			 left_ring2			 left_ring3			 left_thumb1			 left_thumb2			 left_thumb3			 right_index1			 right_index2			 right_index3			 right_middle1			 right_middle2			 right_middle3			 right_pinky1			 right_pinky2			 right_pinky3			 right_ring1			 right_ring2			 right_ring3			 right_thumb1			 right_thumb2			 right_thumb3			 MASI			 MPSI			 MHIPJ			 CENTER			 Virtual_LWRIST			 Virtual_RWRIST			 Virtual_LAJC			 Virtual_RAJC			 Virtual_LKJC			 Virtual_RKJC			 Virtual_LELC			 Virtual_RELC			 Virtual_Ground_RAJC			 Virtual_Ground_LAJC			 Virtual_Ground_RFOOT			 Virtual_Ground_LFOOT			 Virtual_Ground_RTOE			 Virtual_Ground_LTOE			 Virtual_Ground_RMT1			 Virtual_Ground_LMT1			 Virtual_Ground_RMT5			 Virtual_Ground_LMT5			 Virtual_Ground_RHEE			 Virtual_Ground_LHEE		
		X1	Y1	Z1	X2	Y2	Z2	X3	Y3	Z3	X4	Y4	Z4	X5	Y5	Z5	X6	Y6	Z6	X7	Y7	Z7	X8	Y8	Z8	X9	Y9	Z9	X10	Y10	Z10	X11	Y11	Z11	X12	Y12	Z12	X13	Y13	Z13	X14	Y14	Z14	X15	Y15	Z15	X16	Y16	Z16	X17	Y17	Z17	X18	Y18	Z18	X19	Y19	Z19	X20	Y20	Z20	X21	Y21	Z21	X22	Y22	Z22	X23	Y23	Z23	X24	Y24	Z24	X25	Y25	Z25	X26	Y26	Z26	X27	Y27	Z27	X28	Y28	Z28	X29	Y29	Z29	X30	Y30	Z30	X31	Y31	Z31	X32	Y32	Z32	X33	Y33	Z33	X34	Y34	Z34	X35	Y35	Z35	X36	Y36	Z36	X37	Y37	Z37	X38	Y38	Z38	X39	Y39	Z39	X40	Y40	Z40	X41	Y41	Z41	X42	Y42	Z42	X43	Y43	Z43	X44	Y44	Z44	X45	Y45	Z45	X46	Y46	Z46	X47	Y47	Z47	X48	Y48	Z48	X49	Y49	Z49	X50	Y50	Z50	X51	Y51	Z51	X52	Y52	Z52	X53	Y53	Z53	X54	Y54	Z54	X55	Y55	Z55	X56	Y56	Z56	X57	Y57	Z57	X58	Y58	Z58	X59	Y59	Z59	X60	Y60	Z60	X61	Y61	Z61	X62	Y62	Z62	X63	Y63	Z63	X64	Y64	Z64	X65	Y65	Z65	X66	Y66	Z66	X67	Y67	Z67	X68	Y68	Z68	X69	Y69	Z69	X70	Y70	Z70	X71	Y71	Z71	X72	Y72	Z72	X73	Y73	Z73	X74	Y74	Z74	X75	Y75	Z75	X76	Y76	Z76	X77	Y77	Z77	X78	Y78	Z78	X79	Y79	Z79	X80	Y80	Z80	X81	Y81	Z81	X82	Y82	Z82	X83	Y83	Z83	X84	Y84	Z84	X85	Y85	Z85	X86	Y86	Z86	X87	Y87	Z87	X88	Y88	Z88	X89	Y89	Z89	X90	Y90	Z90	X91	Y91	Z91	X92	Y92	Z92	X93	Y93	Z93	X94	Y94	Z94	X95	Y95	Z95	X96	Y96	Z96	X97	Y97	Z97	X98	Y98	Z98	X99	Y99	Z99	X100	Y100	Z100	X101	Y101	Z101	X102	Y102	Z102	X103	Y103	Z103	X104	Y104	Z104	X105	Y105	Z105	X106	Y106	Z106	X107	Y107	Z107	X108	Y108	Z108	X109	Y109	Z109	X110	Y110	Z110	X111	Y111	Z111	X112	Y112	Z112	X113	Y113	Z113	X114	Y114	Z114	X115	Y115	Z115	X116	Y116	Z116	X117	Y117	Z117	X118	Y118	Z118	X119	Y119	Z119	X120	Y120	Z120	X121	Y121	Z121	X122	Y122	Z122	X123	Y123	Z123	X124	Y124	Z124	X125	Y125	Z125	X126	Y126	Z126	X127	Y127	Z127	X128	Y128	Z128	X129	Y129	Z129	X130	Y130	Z130	X131	Y131	Z131	X132	Y132	Z132	X133	Y133	Z133	X134	Y134	Z134	X135	Y135	Z135	X136	Y136	Z136	X137	Y137	Z137	X138	Y138	Z138	X139	Y139	Z139	X140	Y140	Z140	X141	Y141	Z141	X142	Y142	Z142

1	0.0000	226.169109	-421.105593	1171.284318	230.679780	-235.752568	1460.479856	230.058238	-147.451103	1264.982939	228.314906	-149.522215	1212.934852	226.951674	-157.935247	1160.028100	231.153607	-250.728726	1473.917603	224.745706	-375.154167	1379.070163	385.742396	-216.272131	65.484665	175.777331	-176.032379	48.473682	323.405474	-215.392649	86.813472	236.626044	-186.973751	74.341856	356.022596	-349.936515	909.991205	89.828722	-337.301582	896.949947	291.331351	-130.865619	992.647111	170.634001	-128.453970	992.819428	368.657231	-313.395649	1421.540022	86.916499	-307.626218	1424.355626	358.371913	-393.335044	1.553383	174.845010	-359.394401	-2.354656	237.275466	-128.267378	-8.517597	345.537484	-151.532918	9.538796	409.103155	-325.641930	472.066134	96.427567	-270.934343	446.711093	301.412702	-331.655622	462.064385	207.390130	-289.680868	451.614559	-25.776541	-400.140315	844.334722	519.490778	-375.151366	812.617183	-65.732546	-265.917897	1075.430512	504.351616	-274.568617	1065.229416	15.066931	-234.378457	1049.614549	417.079568	-258.435726	1041.297436	525.827706	-316.198438	804.417908	-49.068514	-347.064972	823.626578	150.263667	-355.852634	1392.959833	302.280694	-361.652970	1392.098427	170.175642	-408.683747	1652.775884	289.631844	-295.636207	1685.656428	271.532238	-424.280673	1654.801011	189.858884	-278.721809	1682.591915	357.774079	-339.948773	24.051335	424.083173	-312.617779	5.857732	180.152386	-307.443261	17.644491	112.821169	-269.425243	-5.772803	228.082493	-146.143436	1029.508948	226.946682	-155.476168	1054.097652	226.461589	-163.174346	1082.592607	225.901425	-165.057555	1108.761668	226.198733	-162.334144	1134.054184	227.675930	-153.568551	1185.958624	229.312003	-147.476852	1239.743471	230.302349	-149.358645	1287.928343	231.446505	-158.500165	1328.771472	231.617823	-170.691773	1361.853480	231.025532	-192.327872	1404.573560	230.915859	-206.785157	1427.247643	230.832994	-220.776364	1444.929123	59.059139	-433.313042	731.669724	39.558526	-423.969418	684.752524	29.827112	-399.531752	674.299598	23.710007	-380.092710	685.639799	9.091789	-357.168317	695.899665	463.689774	-407.607406	684.494436	471.560180	-384.979337	652.165711	472.845197	-360.441476	645.799637	473.116696	-343.178183	660.868168	482.297778	-319.029450	676.328123	228.343487	-264.114797	918.731034	230.715424	-225.287616	1045.384765	232.215464	-275.820464	1169.801116	229.734480	-291.072756	1220.778942	291.907042	-247.125074	838.637352	167.536631	-249.886394	826.792836	367.722929	-324.833125	471.889853	138.548240	-276.099801	447.225481	341.563761	-220.651343	60.092118	222.422048	-188.624635	47.182228	395.866007	-331.779271	-6.939981	142.755881	-297.968954	-10.529492	219.777405	-304.690659	1431.519032	303.236157	-301.015317	1336.418271	148.609728	-289.386094	1337.610960	226.471066	-359.161288	1508.665562	434.536964	-295.576483	1305.467606	25.379712	-295.373350	1318.203807	458.504111	-264.153868	1050.845623	-24.043148	-246.903852	1062.927246	519.894779	-344.515294	803.036273	-33.893500	-371.852428	823.816121	521.058857	-388.213485	703.938603	514.137745	-394.777924	672.187567	494.248152	-389.925838	661.052763	531.361282	-367.918879	692.396104	521.497190	-367.035747	661.974370	499.545932	-362.362325	651.680529	531.025648	-320.278138	707.564056	520.795584	-316.551775	690.289676	502.828419	-315.370440	682.091475	533.464432	-341.363728	698.933423	521.262527	-343.557060	672.027230	498.356402	-341.687858	663.317621	497.456312	-376.998842	763.253868	481.971204	-391.921699	739.751518	478.773057	-403.660119	715.316713	-11.084324	-432.942569	737.591088	-0.208830	-441.890895	706.687927	17.874906	-432.476044	695.018530	-26.728636	-418.222070	720.795691	-15.101423	-419.547141	690.828502	5.137378	-409.965813	680.742860	-40.863398	-369.587421	725.196600	-30.124104	-365.203559	708.425045	-12.573725	-359.708041	701.346159	-37.175003	-391.906410	721.077502	-23.099339	-394.248039	695.098698	-1.154711	-386.091918	687.144458	2.349535	-403.987378	796.180010	25.762418	-415.396810	776.895285	36.897983	-428.205162	754.817724	222.925659	-343.619049	903.470576	230.982676	-129.659794	992.733270	229.721837	-248.505734	832.715094	226.954168	-236.639421	948.101923	522.659242	-345.674902	808.517545	-37.422528	-373.602644	833.980650	354.573935	-215.832390	76.149069	206.201687	-181.503065	61.407769	355.257928	-328.648776	467.065260	151.908848	-280.307606	449.162826	460.715592	-266.502172	1053.263426	-25.332808	-250.148177	1062.522531	206.201687	-711.902976	61.407769	354.573935	-711.902976	76.149069	142.755881	-711.902976	-10.529492	395.866007	-711.902976	-6.939981	174.845010	-711.902976	-2.354656	358.371913	-711.902976	1.553383	180.152386	-711.902976	17.644491	357.774079	-711.902976	24.051335	112.821169	-711.902976	-5.772803	424.083173	-711.902976	5.857732	237.275466	-711.902976	-8.517597	345.537484	-711.902976	9.538796
2	0.0083	226.006538	-421.292335	1170.881271	230.110213	-236.424729	1460.369945	229.417831	-147.840291	1265.128970	227.693528	-149.796143	1213.016033	226.377487	-158.131495	1160.033107	230.605468	-251.285642	1473.719239	224.482581	-375.695258	1378.793955	385.448426	-215.987533	66.954009	175.769061	-175.678805	48.260566	323.167205	-215.232179	88.402741	236.630872	-186.585754	74.186556	355.864286	-349.445254	910.044134	89.789882	-337.168843	896.630764	290.861964	-130.557343	992.605686	170.166582	-128.355920	992.755651	368.165195	-313.936234	1421.624780	86.556137	-308.698356	1424.287438	358.064175	-392.818123	2.664324	174.946159	-358.988732	-2.668206	237.311617	-127.870053	-8.649115	345.185637	-151.043355	11.285957	410.113066	-328.438878	472.753674	96.061245	-271.031171	446.386158	302.442580	-334.357649	462.654442	207.054079	-289.611578	451.326013	-24.504978	-400.251210	843.563497	518.461525	-374.314547	812.493861	-65.674618	-267.253727	1075.211406	503.692627	-274.608314	1065.476418	14.931526	-235.135183	1049.608231	416.410267	-258.265018	1041.691065	524.871111	-315.355837	804.472685	-48.246820	-347.284913	823.081136	150.016606	-356.642097	1392.760992	301.916659	-362.111121	1391.945124	169.868797	-409.352392	1652.609825	289.106041	-296.106756	1685.713768	271.264344	-424.738914	1654.704094	189.295307	-279.376268	1682.561994	357.492566	-339.503318	25.249001	423.716813	-312.097877	6.992992	180.199578	-307.052702	17.376062	112.884402	-269.058257	-6.094341	227.632180	-146.035597	1029.456973	226.492092	-155.468404	1054.044366	225.986198	-163.253650	1082.543850	225.392923	-165.194944	1108.712435	225.659609	-162.502691	1134.019852	227.075055	-153.805077	1185.999632	228.681788	-147.806033	1239.861250	229.655311	-149.810940	1288.091540	230.791628	-159.068361	1328.941107	230.969831	-171.315566	1361.994147	230.392471	-193.007186	1404.656172	230.300426	-207.484320	1427.289486	230.240643	-221.483320	1444.914341	60.486149	-432.252675	730.670273	40.898960	-422.925740	683.892548	30.934554	-398.531765	673.468709	24.656814	-379.167438	684.911549	9.843331	-356.383711	695.295751	462.702930	-406.347990	684.271455	470.618814	-383.690506	652.026415	471.940607	-359.110564	645.753801	472.216398	-341.871411	660.858572	481.407970	-317.753285	676.386476	228.136405	-263.906062	918.564022	230.374232	-225.232512	1045.267224	231.829286	-276.047468	1169.569016	229.346260	-291.320771	1220.540524	291.724801	-246.725485	838.530779	167.365834	-249.651358	826.605856	368.641317	-327.510506	472.678423	138.279051	-276.143134	447.065383	341.368616	-220.375359	61.711546	222.251758	-188.239321	47.136780	395.509988	-331.259876	-5.851631	142.807052	-297.533095	-10.974590	219.356135	-305.439919	1431.246042	302.834451	-301.384896	1336.177945	148.185372	-290.058970	1337.352753	226.216391	-359.581232	1508.609295	434.264541	-295.992583	1305.772543	24.950128	-296.591818	1318.155766	457.830995	-264.084935	1051.173449	-24.117935	-247.952655	1062.843084	518.902659	-343.655467	803.030431	-32.863785	-371.925145	823.181629	520.091653	-387.085497	703.815222	513.186693	-393.555969	672.041416	493.310660	-388.651580	660.905182	530.425012	-366.771042	692.335486	520.584404	-365.794331	661.909044	498.645872	-361.068636	651.611865	530.130923	-319.171339	707.632601	519.917727	-315.386713	690.360904	501.957953	-314.163178	682.152748	532.552719	-340.236127	698.946536	520.368278	-342.342794	672.025502	497.470617	-340.424538	663.304210	496.457636	-376.005918	763.143361	480.973393	-390.847683	739.589214	477.780312	-402.516127	715.120256	-9.635750	-432.503253	736.707509	1.278561	-441.245437	705.759048	19.266542	-431.633204	694.102585	-25.426377	-417.856812	719.984472	-13.824720	-418.972999	689.998806	6.318745	-409.181535	679.924190	-39.972980	-369.361728	724.579334	-29.292185	-364.824831	707.811117	-11.798281	-359.153003	700.731516	-36.098022	-391.633093	720.374525	-22.034395	-393.759251	694.370687	-0.170339	-385.386020	686.420202	3.620249	-403.646797	795.385540	27.106758	-414.784461	776.031613	38.325023	-427.416354	753.894329	222.827084	-343.307048	903.337449	230.514273	-129.456632	992.680669	229.545318	-248.188421	832.568318	226.670679	-236.381840	948.009059	521.666318	-344.835192	808.483273	-36.375899	-373.768061	833.322316	354.307815	-215.609856	77.678375	206.199966	-181.132279	61.223561	356.277823	-331.398264	467.704058	151.557662	-280.321375	448.856086	460.051447	-266.436666	1053.583741	-25.371546	-251.194455	1062.409818	206.199966	-711.902976	61.223561	354.307815	-711.902976	77.678375	142.807052	-711.902976	-10.974590	395.509988	-711.902976	-5.851631	174.946159	-711.902976	-2.668206	358.064175	-711.902976	2.664324	180.199578	-711.902976	17.376062	357.492566	-711.902976	25.249001	112.884402	-711.902976	-6.094341	423.716813	-711.902976	6.992992	237.311617	-711.902976	-8.649115	345.185637	-711.902976	11.285957
3	0.0167	225.920558	-421.320856	1170.422196	229.556024	-237.003371	1460.237265	228.823006	-148.089319	1265.260100	227.107763	-149.928108	1213.094115	225.826710	-158.172876	1160.040259	230.064243	-251.773447	1473.500609	224.223152	-376.126468	1378.462315	385.021299	-215.531260	68.586856	175.806850	-175.432131	48.191100	322.823167	-214.874908	90.181261	236.677155	-186.312467	74.159294	355.720580	-348.903269	910.171151	89.736357	-336.940348	896.405816	290.441215	-130.129695	992.572188	169.733196	-128.117174	992.697418	367.733389	-314.359188	1421.559930	86.163118	-309.588283	1424.045086	357.558936	-392.211020	4.222780	175.044686	-358.683258	-2.796263	237.381473	-127.581552	-8.659691	344.692379	-150.433064	13.134509	411.152065	-331.210583	473.535001	95.689729	-271.304995	446.163565	303.497106	-337.020248	463.355869	206.706837	-289.722174	451.144159	-23.462461	-400.114328	842.527509	517.639279	-373.361498	812.248111	-65.734580	-268.417865	1074.799657	503.257990	-274.404705	1065.556526	14.654933	-235.723197	1049.346447	416.015387	-257.771075	1041.839123	524.306834	-314.418614	804.398835	-47.778353	-347.304612	822.317243	149.749309	-357.287854	1392.466903	301.580340	-362.463146	1391.714215	169.561028	-409.922957	1652.432442	288.566977	-296.447754	1685.690284	270.999402	-425.080657	1654.587150	188.719735	-279.912651	1682.465434	357.024997	-338.922530	26.791364	423.154354	-311.479926	8.371145	180.261374	-306.764930	17.278701	112.955511	-268.788666	-6.223292	227.205887	-145.781904	1029.415607	226.057023	-155.302852	1054.004908	225.528732	-163.165882	1082.511425	224.903673	-165.163845	1108.675599	225.139812	-162.507027	1133.994341	226.503059	-153.892502	1186.040401	228.092164	-147.995904	1239.969969	229.056746	-150.120065	1288.234711	230.185091	-159.488320	1329.083204	230.363324	-171.800569	1362.103343	229.794666	-193.565488	1404.703975	229.712382	-208.070964	1427.294612	229.669735	-222.084820	1444.865704	61.567619	-430.737376	729.255974	41.794315	-421.457052	682.636678	31.533197	-397.126734	672.281265	25.077654	-377.863169	683.838010	10.036958	-355.255395	694.371462	461.846799	-404.817313	683.914542	469.891131	-382.159144	651.747108	471.327424	-357.546419	645.560443	471.661627	-340.327710	660.700917	480.940521	-316.272646	676.297188	227.943376	-263.596356	918.419659	230.061948	-225.031823	1045.158148	231.496200	-276.110500	1169.352174	229.001492	-291.441232	1220.305800	291.556180	-246.267542	838.437796	167.207673	-249.334812	826.439559	369.614512	-330.156058	473.526895	137.973502	-276.356310	446.947724	341.017157	-219.901532	63.476115	222.179875	-187.962472	47.176272	394.943863	-330.668628	-4.450530	142.849982	-297.202557	-11.192411	218.949601	-306.071013	1430.973530	302.459747	-301.646650	1335.949779	147.790492	-290.595621	1337.086916	225.930184	-359.951884	1508.507729	433.955163	-296.241760	1305.830598	24.585498	-297.587603	1317.857742	457.421005	-263.730019	1051.298738	-24.323689	-248.843148	1062.534571	518.218875	-342.681497	802.890778	-32.136634	-371.765852	822.300851	519.312799	-385.867566	703.568041	512.410104	-392.228037	671.771526	492.566556	-387.208551	660.628736	529.746234	-365.569949	692.149222	519.939303	-364.473790	661.715925	498.031646	-359.626055	651.409745	529.646218	-318.007916	707.565486	519.466341	-314.135224	690.293610	501.520038	-312.812299	682.071447	531.983972	-339.061260	698.828816	519.816339	-341.046959	671.891034	496.935725	-339.006364	663.152754	495.670557	-374.833047	762.901306	480.144024	-389.547646	739.295185	476.923347	-401.140600	714.793980	-8.515717	-431.759447	735.526145	2.400814	-440.265417	704.512715	20.250900	-430.416614	692.841768	-24.510758	-417.218566	718.905568	-12.985574	-418.095380	688.882470	7.022573	-408.050388	678.787827	-39.561138	-368.899852	723.730147	-28.978514	-364.184588	706.948876	-11.566998	-358.298838	699.840844	-35.460785	-391.112149	719.427943	-21.451371	-392.987847	693.375647	0.298633	-384.350747	685.394585	4.602774	-402.988493	794.277072	28.150244	-413.799882	774.812520	39.438039	-426.225930	752.594173	222.728468	-342.921808	903.288484	230.087206	-129.123434	992.634803	229.381926	-247.801177	832.438678	226.407837	-236.022621	947.961643	520.973057	-343.890056	808.323473	-35.620407	-373.709470	832.422376	353.922233	-215.203084	79.384059	206.242003	-180.872299	61.175197	357.324585	-334.115416	468.445435	151.198283	-280.513585	448.653862	459.636688	-266.087890	1053.697824	-25.539824	-252.070531	1062.073052	206.242003	-711.902976	61.175197	353.922233	-711.902976	79.384059	142.849982	-711.902976	-11.192411	394.943863	-711.902976	-4.450530	175.044686	-711.902976	-2.796263	357.558936	-711.902976	4.222780	180.261374	-711.902976	17.278701	357.024997	-711.902976	26.791364	112.955511	-711.902976	-6.223292	423.154354	-711.902976	8.371145	237.381473	-711.902976	-8.659691	344.692379	-711.902976	13.134509
4	0.0250	225.870714	-421.269596	1169.868588	229.044646	-237.546414	1460.029244	228.295445	-148.275360	1265.332580	226.595834	-149.991602	1213.118196	225.347444	-158.134446	1159.994841	229.562759	-252.228677	1473.201752	224.009171	-376.513332	1378.041744	384.502411	-214.968681	70.328653	175.866812	-175.243229	48.177540	322.397858	-214.388728	92.060685	236.740246	-186.097443	74.186265	355.617553	-348.280936	910.265923	89.692704	-336.619020	896.191299	290.072858	-129.608721	992.493212	169.343874	-127.773017	992.604911	367.364764	-314.713627	1421.365738	85.796021	-310.422778	1423.650742	356.899738	-391.551852	6.067155	175.172985	-358.434290	-2.815486	237.462386	-127.352074	-8.625390	344.150066	-149.747252	15.031753	412.193656	-334.009439	474.331856	95.271386	-271.766394	445.948333	304.553360	-339.707792	464.086831	206.308842	-290.027380	450.967729	-22.507600	-399.721950	841.197252	516.802549	-372.438103	811.854839	-65.833829	-269.531637	1074.217081	502.894104	-274.124891	1065.462947	14.330336	-236.251682	1048.906922	415.684044	-257.245392	1041.827202	523.723483	-313.516587	804.150522	-47.454707	-347.088158	821.304798	149.516210	-357.884616	1392.062902	301.298231	-362.764299	1391.386747	169.250458	-410.419732	1652.202606	288.023949	-296.702713	1685.597301	270.734876	-425.344616	1654.434800	188.142151	-280.365855	1682.283640	356.421024	-338.262498	28.561233	422.473192	-310.830623	9.960411	180.346459	-306.532651	17.265676	113.045342	-268.589228	-6.275178	226.834774	-145.428240	1029.332399	225.680873	-155.037820	1053.923488	225.133359	-162.979901	1082.437158	224.480361	-165.038139	1108.592272	224.689052	-162.422657	1133.919954	226.004556	-153.905988	1186.027765	227.573797	-148.120731	1240.022063	228.520945	-150.367111	1288.317204	229.633763	-159.847125	1329.161286	229.807064	-172.229707	1362.145424	229.242429	-194.075853	1404.681087	229.166791	-208.613127	1427.226663	229.140922	-222.646117	1444.742680	62.476583	-428.839415	727.461398	42.464621	-419.615686	681.019366	31.873949	-395.365834	670.751810	25.235064	-376.218796	682.434022	9.954461	-353.811055	693.136275	461.006016	-403.373390	683.405101	469.182789	-380.726308	651.307702	470.730662	-356.086463	645.198524	471.118748	-338.888496	660.366714	480.481029	-314.888895	676.022947	227.779701	-263.197303	918.229043	229.796603	-224.734366	1044.999957	231.216788	-276.094973	1169.077754	228.710815	-291.495591	1220.009804	291.407049	-245.727167	838.289499	167.067572	-248.932466	826.233864	370.603353	-332.826465	474.377394	137.611911	-276.751429	446.816832	340.562880	-219.300956	65.323591	222.147033	-187.741116	47.251642	394.249737	-330.054253	-2.815129	142.905384	-296.942145	-11.309626	218.589857	-306.666970	1430.635929	302.134842	-301.859289	1335.661411	147.445872	-291.083425	1336.755753	225.662813	-360.281974	1508.345842	433.668345	-296.389878	1305.720687	24.291225	-298.512459	1317.368507	457.081974	-263.328165	1051.254749	-24.572574	-249.691933	1062.051296	517.511487	-341.743708	802.587390	-31.528585	-371.348917	821.147859	518.538237	-384.727478	703.176260	511.646390	-390.991896	671.358347	491.838127	-385.863453	660.202324	529.073060	-364.451528	691.812217	519.307554	-363.249689	661.369622	497.433513	-358.285785	651.047409	529.160142	-316.921622	707.327485	519.017935	-312.968999	690.051615	501.087427	-311.551362	681.810737	531.417370	-337.966681	698.549747	519.273639	-339.843720	671.593368	496.412605	-337.686002	662.832081	494.872481	-373.714179	762.504101	479.310900	-388.312340	738.848865	476.069629	-399.840295	714.319706	-7.548309	-430.710673	734.037876	3.344455	-438.962728	702.947557	21.031179	-428.857684	691.246986	-23.778848	-416.292220	717.539370	-12.363217	-416.912526	687.468112	7.485338	-406.592250	677.336156	-39.376788	-368.173778	722.619534	-28.916888	-363.266826	705.816269	-11.604032	-357.148021	698.664188	-35.032772	-390.318811	718.210936	-21.105610	-391.924679	692.096531	0.509598	-383.000195	684.065640	5.463877	-402.024031	792.853594	29.059447	-412.479162	773.253143	40.404357	-424.681991	750.940442	222.655129	-342.449978	903.228611	229.708366	-128.690869	992.549062	229.237311	-247.329816	832.261682	226.181747	-235.570423	947.888836	520.263016	-342.977345	808.002681	-34.981154	-373.405054	831.251025	353.450134	-214.678705	81.194669	206.303529	-180.670336	61.181903	358.373508	-336.858615	469.209343	150.790114	-280.896887	448.458031	459.289074	-265.685141	1053.645074	-25.751747	-252.891660	1061.562002	206.303529	-711.902976	61.181903	353.450134	-711.902976	81.194669	142.905384	-711.902976	-11.309626	394.249737	-711.902976	-2.815129	175.172985	-711.902976	-2.815486	356.899738	-711.902976	6.067155	180.346459	-711.902976	17.265676	356.421024	-711.902976	28.561233	113.045342	-711.902976	-6.275178	422.473192	-711.902976	9.960411	237.462386	-711.902976	-8.625390	344.150066	-711.902976	15.031753
